<svg width="100" height="100" viewBox="0 0 100 100" fill="none" xmlns="http://www.w3.org/2000/svg">
<g clip-path="url(#clip0_4_415)">
<path d="M88.889 16.6667H11.1112C9.63779 16.6667 8.22472 17.252 7.18285 18.2938C6.14098 19.3357 5.55566 20.7488 5.55566 22.2222V77.7778C5.55566 79.2512 6.14098 80.6643 7.18285 81.7061C8.22472 82.748 9.63779 83.3333 11.1112 83.3333H88.889C90.3624 83.3333 91.7755 82.748 92.8174 81.7061C93.8592 80.6643 94.4445 79.2512 94.4445 77.7778V22.2222C94.4445 20.7488 93.8592 19.3357 92.8174 18.2938C91.7755 17.252 90.3624 16.6667 88.889 16.6667ZM88.889 77.7778H11.1112V22.2222H88.889V77.7778Z" fill="black"/>
<path d="M24.9999 38.8889H74.9999C75.7367 38.8889 76.4432 38.5962 76.9641 38.0753C77.4851 37.5544 77.7777 36.8478 77.7777 36.1111C77.7777 35.3744 77.4851 34.6679 76.9641 34.1469C76.4432 33.626 75.7367 33.3333 74.9999 33.3333H24.9999C24.2632 33.3333 23.5567 33.626 23.0358 34.1469C22.5148 34.6679 22.2222 35.3744 22.2222 36.1111C22.2222 36.8478 22.5148 37.5544 23.0358 38.0753C23.5567 38.5962 24.2632 38.8889 24.9999 38.8889Z" fill="black"/>
<path d="M24.9999 50H74.9999C75.7367 50 76.4432 49.7074 76.9641 49.1864C77.4851 48.6655 77.7777 47.9589 77.7777 47.2222C77.7777 46.4855 77.4851 45.779 76.9641 45.258C76.4432 44.7371 75.7367 44.4445 74.9999 44.4445H24.9999C24.2632 44.4445 23.5567 44.7371 23.0358 45.258C22.5148 45.779 22.2222 46.4855 22.2222 47.2222C22.2222 47.9589 22.5148 48.6655 23.0358 49.1864C23.5567 49.7074 24.2632 50 24.9999 50Z" fill="black"/>
<path d="M24.9999 61.1111H52.7777C53.5144 61.1111 54.221 60.8184 54.7419 60.2975C55.2628 59.7766 55.5555 59.07 55.5555 58.3333C55.5555 57.5966 55.2628 56.8901 54.7419 56.3691C54.221 55.8482 53.5144 55.5555 52.7777 55.5555H24.9999C24.2632 55.5555 23.5567 55.8482 23.0358 56.3691C22.5148 56.8901 22.2222 57.5966 22.2222 58.3333C22.2222 59.07 22.5148 59.7766 23.0358 60.2975C23.5567 60.8184 24.2632 61.1111 24.9999 61.1111Z" fill="black"/>
</g>
<defs>
<clipPath id="clip0_4_415">
<rect width="100" height="100" fill="white"/>
</clipPath>
</defs>
</svg>
