<svg width="95" height="85" viewBox="0 0 95 85" fill="none" xmlns="http://www.w3.org/2000/svg">
<g clip-path="url(#clip0_1_12)">
<path d="M48.819 77.0312H39.5829V56.2428L67.4132 28.231C69.973 25.6544 68.1604 21.25 64.5401 21.25H4.07001C0.449782 21.25 -1.3628 25.6544 1.19692 28.231L29.0273 56.2428V77.0312H19.7912C16.1479 77.0312 13.194 80.0046 13.194 83.6719C13.194 84.4057 13.7844 85 14.5134 85H54.0967C54.8257 85 55.4162 84.4057 55.4162 83.6719C55.4162 80.0046 52.4623 77.0312 48.819 77.0312ZM71.2495 0C60.9232 0 52.2248 6.67383 48.9542 15.9375H57.6197C60.3657 11.1978 65.4159 7.96875 71.2495 7.96875C79.9793 7.96875 87.0829 15.1174 87.0829 23.9062C87.0829 32.6951 79.9793 39.8438 71.2495 39.8438C68.9339 39.8438 66.7486 39.3125 64.7645 38.4094L58.949 44.2631C62.5461 46.4711 66.7288 47.8125 71.2495 47.8125C84.3664 47.8125 94.9995 37.1095 94.9995 23.9062C94.9995 10.703 84.3664 0 71.2495 0Z" fill="black"/>
</g>
<defs>
<clipPath id="clip0_1_12">
<rect width="95" height="85" fill="white"/>
</clipPath>
</defs>
</svg>
